<svg width="683" height="286" viewBox="0 0 683 286" fill="none" xmlns="http://www.w3.org/2000/svg">
<path d="M214.113 38.0462C204.451 63.8535 196.087 84.416 188.347 103.734C180.269 123.484 171.472 146.838 165.03 164.046C156.519 186.583 147.67 200.182 129.602 199.312C118.597 198.734 122.925 183.353 125.28 177.202L169.082 52.6452L150.681 45.9629C140.628 71.817 132.649 92.3379 124.91 111.656C116.832 131.406 108.035 154.76 101.207 172.01C92.6962 194.546 82.8889 209.827 66.1649 207.229C55.0191 205.499 59.4878 191.275 61.8472 185.124C76.8941 139.906 89.5399 109.822 105.264 60.6139L90.0295 51.192L83.0139 57.5358C76.3785 63.8275 65.4201 66.7597 58.4045 66.8535C45.8628 66.4681 32.5035 65.791 21.6389 72.6139C8.66492 81.265 0.826375 96.6868 0.055542 124.895L18.8941 125.671C19.6649 103.708 24.2795 93.7597 32.2587 88.8587C39.8055 83.6243 50.9983 85.7389 58.8316 85.9316C63.8785 85.692 70.8003 84.8275 77.9149 82.3795C66.9983 113.807 54.7847 147.348 43.4878 178.822C37.0451 199.15 39.5399 225.39 65.0555 226.499C82.6441 226.65 96.1545 219.104 106.488 204.932C113.019 216.609 125.514 219.734 137.436 218.249C166.269 214.65 177.472 185.525 182.665 170.822C189.108 153.619 198.337 130.603 206.03 110.9L232.134 44.7754L214.113 38.0462Z" fill="#E42C24"/>
<path d="M256.494 74.1424C255.489 66.0695 248.135 60.3508 240.447 61.3091C232.374 62.3195 226.65 69.6685 227.661 77.7414C228.666 85.8195 235.973 91.1529 244.046 90.1476C251.733 89.1841 257.504 82.2153 256.494 74.1424ZM217.067 208.7C235.905 206.346 251.572 187.991 263.832 164.205L246.775 155.793C236.676 175.012 227.353 187.892 213.129 189.668C212.89 187.747 212.937 181.882 218.608 167.898C223.947 154.346 240.244 112.877 244.187 103.793L226.119 96.6789C222.562 105.71 206.265 147.184 200.541 160.783C195.254 174.715 190.348 191.731 198.275 202.064C201.062 205.622 206.687 209.991 217.067 208.7Z" fill="#E42C24"/>
<path d="M340.535 143.695C332.65 158.736 325.056 169.835 315.54 174.929C321.743 158.929 311.941 139.846 304.879 127.065C300.795 119.372 296.665 111.299 294.457 102.986C297.967 93.5646 295.759 82.1271 284.608 83.5177C275.379 84.674 273.743 93.4656 274.561 100.002C265.571 121.82 250.957 148.632 240.285 172.611L250.759 178.33C255.415 193.757 267.717 204.716 283.483 202.752C291.17 201.789 298.863 197.705 304.821 192.278L304.582 196.601C304.582 196.601 305.394 196.893 305.78 196.841C318.806 197.95 330.243 189.492 338.462 180.268C346.441 172.242 352.212 162.153 357.592 152.111L340.535 143.695ZM296.801 168.679C295.066 176.705 287.571 185.45 278.775 183.815C267.962 181.648 266.717 162.283 266.717 162.283C273.108 150.945 278.686 139.315 283.879 127.731L288.009 135.809C293.196 146.091 299.639 157.002 296.801 168.679Z" fill="#E42C24"/>
<path d="M447.465 130.741C437.418 150.345 429.2 162.694 415.356 164.423C414.924 160.965 415.741 151.882 419.304 142.845L446.033 75.4754L428.398 68.6942L420.945 87.1942C413.163 78.0171 403.741 74.5067 394.517 75.6577C373.752 78.2515 357.314 99.8244 349.622 116.403C336.788 141.824 331.398 195.595 369.84 190.798C381.377 189.361 391.804 182.199 398.632 174.319C403.002 181.194 409.684 184.653 417.757 183.647C426.601 182.543 435.392 177.929 443.757 169.856C450.007 163.611 456.064 155.83 464.523 139.153L447.465 130.741ZM363.116 171.335C351.872 162.585 362.403 134.33 366.731 125.199C373.892 110.642 390.382 89.4494 402.439 95.3609C414.168 101.71 402.533 133.616 398.83 141.496C393.543 152.309 375.132 176.861 363.116 171.335Z" fill="#E42C24"/>
<path d="M498.811 0.947205C494.868 10.0305 483.858 37.5618 471.936 67.166L450.405 69.8535L452.712 88.3066L463.858 86.916C457.322 103.348 451.405 118.536 447.9 127.952C444.29 136.603 440.733 145.635 439.962 155.103C439.431 169.619 448.467 179.421 463.077 177.598C481.915 175.249 497.582 156.89 509.889 133.489L492.785 124.692C488.171 137.765 479.561 156.406 459.186 158.952C458.848 156.26 459.618 149.916 465.535 134.734C470.004 123.63 477.697 103.932 485.775 84.1764L504.228 81.8743L501.926 63.4212L493.467 64.4785L516.493 8.10866L498.811 0.947205Z" fill="#E42C24"/>
<path d="M598.945 111.832C588.898 131.436 580.679 143.785 566.835 145.514C566.403 142.056 567.221 132.973 570.783 123.936L597.512 56.5665L579.877 49.7853L572.424 68.2853C564.643 59.1082 555.221 55.5978 545.997 56.7488C525.231 59.3426 508.794 80.9155 501.101 97.4936C488.268 122.915 482.877 176.686 521.32 171.889C532.856 170.452 543.283 163.29 550.111 155.41C554.481 162.285 561.164 165.744 569.236 164.738C578.08 163.634 586.872 159.02 595.236 150.947C601.486 144.702 607.544 136.921 616.002 120.244L598.945 111.832ZM514.596 152.426C503.351 143.676 513.882 115.421 518.21 106.29C525.372 91.7332 541.861 70.5405 553.919 76.4519C565.648 82.8009 554.012 114.707 550.309 122.587C545.023 133.4 526.611 157.952 514.596 152.426Z" fill="#E42C24"/>
<path d="M277.627 261.842C278.716 262.228 279.815 262.686 280.919 262.624C288.69 262.327 294.83 259.108 298.591 252.249C301.575 246.967 302.466 239.796 296.981 233.931C295.263 232.066 293.356 231.113 290.914 231.191C288.773 231.311 286.575 231.582 284.455 231.848C281.523 232.212 278.549 232.806 275.549 233.176C272.987 233.499 271.95 234.144 271.367 236.598C270.513 239.9 269.742 243.269 269.2 246.681C268.325 252.217 267.674 257.728 267.028 263.306C266.299 269.421 265.731 275.587 265.669 281.691C265.617 283.035 265.768 284.28 266.997 285.171C267.825 285.884 268.877 285.978 269.601 285.217C269.997 284.796 270.466 284.368 270.627 283.9C271.336 281.806 272.289 279.905 272.08 277.624C272.018 276.514 272.164 275.306 272.32 274.176C272.768 271.217 273.294 268.254 273.742 265.296C274.002 263.78 274.33 262.249 274.7 260.421C275.888 261.014 276.7 261.582 277.627 261.842ZM277.117 239.228C279.528 238.259 281.971 238.181 284.377 237.806C285.622 237.65 286.955 237.634 288.2 237.478C289.815 237.28 291.351 237.087 292.622 238.342C294.138 239.79 295.174 241.519 295.143 243.681C294.955 249.353 291.127 255.629 284.528 256.374C282.106 256.603 279.726 257.191 277.476 255.837C276.909 255.462 276.101 255.561 275.034 255.322C275.216 249.65 276.211 244.473 277.117 239.228Z" fill="#E42C24"/>
<path d="M304.849 269.758C305.797 272.613 306.479 275.727 309.151 277.477C313.271 280.086 317.906 280.326 322.412 279.472C325.75 278.831 328.693 276.758 330.698 273.758C333.573 269.383 335.505 264.607 336.198 259.394C336.667 256.581 336.906 253.727 337.219 250.863C337.734 246.04 338.104 241.238 338.547 236.425C338.776 234.092 338.943 231.842 339.099 229.514C339.167 228.836 339.146 228.097 339.063 227.435C338.802 225.909 337.656 225.086 335.938 225.003C334.813 224.92 333.787 225.639 333.427 226.951C333.115 228.029 332.886 229.17 332.729 230.305C331.813 237.264 330.964 244.206 330.042 251.159C329.573 255.159 328.948 259.102 328.479 263.102C328.12 265.602 326.896 267.685 325.511 269.717C323.25 273.045 320.047 274.185 316.167 273.482C312.589 272.81 310.932 270.863 311 267.206C311.167 264.363 311.406 261.508 311.719 258.644C312.677 250.795 313.787 242.998 314.755 235.217C314.927 233.633 314.886 232.081 314.828 230.451C314.792 229.56 314.339 228.878 313.412 228.618C312.333 228.305 311.406 228.05 310.641 229.04C310.125 229.696 309.625 230.43 309.422 231.196C308.896 233.566 308.458 236.003 308.005 238.363C306.979 243.842 305.875 249.331 305.005 254.868C304.313 258.894 303.948 263.102 304.453 267.206C304.563 268.081 304.526 268.982 304.849 269.758Z" fill="#E42C24"/>
<path d="M349.428 264.216C352.303 252.039 353.131 239.591 354.871 227.258C354.964 226.8 354.917 226.435 354.933 225.987C354.855 224.732 354.225 223.841 353.371 223.576C352.459 223.393 351.058 224.086 350.506 225.05C350.334 225.44 350.157 225.836 350.141 226.284C349.35 230.097 348.553 233.841 347.98 237.628C346.329 248.841 344.746 260.039 343.235 271.232C343.115 272.065 342.996 272.893 343.105 273.774C343.246 274.873 344.407 275.841 345.522 275.852C346.115 275.852 346.704 275.779 347.214 275.716L360.47 274.071C362.006 273.878 363.615 273.68 365.136 273.341C365.938 273.242 366.803 272.982 367.569 272.591C368.475 272.107 369.209 271.419 369.136 270.242C368.98 268.998 368.266 268.044 366.923 267.987C365.714 267.841 364.386 267.93 363.162 268.232C358.548 269.399 353.881 269.534 348.699 270.326C348.985 267.841 349.053 265.972 349.428 264.216Z" fill="#E42C24"/>
<path d="M397.232 257.084L399.44 265.282C399.669 265.923 399.836 266.647 400.138 267.277C400.904 268.673 402.002 269.131 403.32 268.964C404.997 268.683 406.002 267.813 406.086 266.095C406.086 264.308 405.851 262.407 405.549 260.584C405.049 257.746 404.336 255.011 403.763 252.183C403.185 249.355 402.549 246.605 402.044 243.772C400.924 238.334 399.867 232.813 398.742 227.376C398.315 225.126 397.742 222.891 397.237 220.652C396.617 218.053 392.987 217.537 391.284 219.386C390.633 220.136 390.148 221.011 389.669 221.964C386.737 228.277 383.575 234.542 380.966 241.037C377.794 249.016 375.086 257.157 372.154 265.256C371.825 266.188 371.659 267.251 371.555 268.23C371.492 269.501 372.44 270.574 373.758 271.006C374.846 271.391 375.846 271.042 376.404 270.157C377.346 268.772 378.357 267.308 378.982 265.746C381.82 258.105 380.596 259.595 388.482 257.871C391.232 257.235 394.065 256.73 397.232 257.084ZM384.555 251.97C386.435 244.97 389.002 238.699 391.794 232.48C392.19 232.652 392.575 232.756 392.591 232.902C394.482 240.324 395.502 246.74 395.362 249.808C391.956 250.527 388.471 251.183 384.555 251.97Z" fill="#E42C24"/>
<path d="M413.774 256.216C414.721 259.07 415.404 262.185 418.076 263.935C422.195 266.544 426.831 266.784 431.336 265.93C434.675 265.289 437.617 263.216 439.623 260.216C442.498 255.841 444.43 251.065 445.123 245.852C445.591 243.039 445.831 240.185 446.143 237.32C446.659 232.497 447.029 227.695 447.471 222.883C447.701 220.549 447.867 218.299 448.024 215.971C448.091 215.294 448.07 214.555 447.987 213.893C447.727 212.367 446.581 211.544 444.862 211.461C443.737 211.378 442.711 212.096 442.352 213.409C442.039 214.487 441.81 215.628 441.654 216.763C440.737 223.721 439.888 230.664 438.966 237.617C438.498 241.617 437.873 245.56 437.404 249.56C437.044 252.06 435.82 254.143 434.435 256.174C432.175 259.503 428.971 260.643 425.091 259.94C421.513 259.268 419.857 257.32 419.925 253.664C420.091 250.82 420.331 247.966 420.643 245.102C421.602 237.253 422.711 229.456 423.68 221.674C423.852 220.091 423.81 218.539 423.753 216.909C423.716 216.018 423.263 215.336 422.336 215.076C421.258 214.763 420.331 214.508 419.565 215.497C419.05 216.154 418.55 216.888 418.346 217.654C417.82 220.023 417.383 222.461 416.93 224.82C415.904 230.299 414.8 235.789 413.93 241.326C413.237 245.352 412.873 249.56 413.378 253.664C413.487 254.539 413.451 255.44 413.774 256.216Z" fill="#E42C24"/>
<path d="M466.836 249.542C466.622 250.833 466.997 252.052 467.591 253.24C470.096 258.432 475.143 261.375 480.872 260.807C481.982 260.745 483.154 260.599 484.252 260.464C489.961 259.755 493.768 256.307 495.825 251.292C498.398 245.099 497.148 239.234 492.935 234.031C490.815 231.323 487.94 229.745 485.133 228.089C483.523 227.099 481.846 226.193 480.44 225.026C476.919 221.823 477.398 215.516 481.388 212.938C484.758 210.734 490.258 210.724 492.325 214.776C492.82 215.755 493.805 216.526 494.711 217.229C495.377 217.818 496.221 218.01 497.127 217.526C498.169 216.948 499.023 216.026 498.794 214.792C498.331 212.245 497.591 209.885 495.284 208.089C490.289 204.396 485.174 204.516 479.914 207.026C471.002 211.333 467.747 225.193 477.591 231.406C479.518 232.578 481.523 233.74 483.529 234.906C486.263 236.573 488.539 238.74 489.737 241.792C491.654 246.458 488.867 252.156 484.055 253.5C479.029 254.943 475.523 253.667 472.726 249.109C471.987 247.938 471.07 247.156 469.461 246.766C468.206 247.443 467.029 248.109 466.836 249.542Z" fill="#E42C24"/>
<path d="M505.276 244.84C506.224 247.694 506.906 250.809 509.578 252.559C513.698 255.168 518.333 255.408 522.838 254.554C526.177 253.913 529.12 251.84 531.125 248.84C534 244.465 535.932 239.689 536.625 234.475C537.094 231.663 537.333 228.809 537.646 225.944C538.161 221.121 538.531 216.319 538.974 211.507C539.203 209.173 539.37 206.923 539.526 204.595C539.594 203.918 539.573 203.179 539.489 202.517C539.229 200.991 538.083 200.168 536.364 200.085C535.239 200.001 534.213 200.72 533.854 202.033C533.542 203.111 533.312 204.251 533.156 205.387C532.239 212.345 531.391 219.288 530.469 226.241C530 230.241 529.375 234.184 528.906 238.184C528.547 240.684 527.323 242.767 525.937 244.798C523.677 248.126 520.474 249.267 516.594 248.564C513.016 247.892 511.359 245.944 511.427 242.288C511.594 239.444 511.833 236.59 512.146 233.725C513.104 225.876 514.213 218.08 515.182 210.298C515.354 208.715 515.312 207.163 515.255 205.533C515.219 204.642 514.766 203.96 513.838 203.699C512.76 203.387 511.833 203.132 511.068 204.121C510.552 204.777 510.052 205.512 509.849 206.277C509.323 208.647 508.885 211.085 508.432 213.444C507.406 218.923 506.302 224.413 505.432 229.949C504.739 233.975 504.375 238.184 504.88 242.288C504.989 243.163 504.953 244.064 505.276 244.84Z" fill="#E42C24"/>
<path d="M549.855 239.298C552.73 227.121 553.558 214.673 555.297 202.34C555.391 201.881 555.344 201.517 555.36 201.069C555.282 199.814 554.652 198.923 553.797 198.657C552.886 198.475 551.485 199.168 550.933 200.131C550.761 200.522 550.584 200.918 550.568 201.366C549.777 205.178 548.98 208.923 548.407 212.709C546.756 223.923 545.172 235.121 543.662 246.314C543.542 247.147 543.422 247.975 543.532 248.855C543.672 249.954 544.834 250.923 545.948 250.933C546.542 250.933 547.131 250.86 547.641 250.798L560.896 249.152C562.433 248.959 564.042 248.761 565.563 248.423C566.365 248.324 567.23 248.064 567.995 247.673C568.902 247.189 569.636 246.501 569.563 245.324C569.407 244.079 568.693 243.126 567.349 243.069C566.141 242.923 564.813 243.011 563.589 243.314C558.974 244.48 554.308 244.616 549.126 245.407C549.412 242.923 549.48 241.053 549.855 239.298Z" fill="#E42C24"/>
<path d="M588.711 205.025C587.935 211.963 587.018 218.916 586.325 225.916C585.867 230.582 585.57 235.379 585.252 240.025C585.237 241.067 585.278 242.03 585.409 243.056C585.606 244.072 586.159 244.895 587.299 245.124C588.372 245.364 589.435 244.931 589.919 244.056C590.523 242.942 591.039 241.687 591.112 240.489C592.023 230.484 592.789 220.504 593.627 210.51C593.961 207.197 594.31 204.03 594.58 200.801C595.648 200.442 596.492 200.041 597.299 199.942C599.695 199.494 602.122 199.27 604.507 198.749C605.747 198.52 607.028 198.062 608.049 197.343C609.414 196.353 609.132 194.082 607.57 193.463C606.7 193.046 605.638 192.885 604.679 192.926C602.398 193.135 600.127 193.421 597.877 193.848C593.648 194.52 589.565 195.775 585.185 195.796C583.096 195.76 580.955 196.473 578.851 196.885C577.763 197.093 577.007 197.629 576.534 198.582C575.69 200.176 576.586 201.994 578.362 201.926C579.919 201.879 581.518 201.609 583.054 201.416C584.898 201.26 586.747 201.181 589.242 200.942C588.95 202.765 588.867 203.89 588.711 205.025Z" fill="#E42C24"/>
<path d="M630.965 228.025L633.174 236.223C633.403 236.863 633.57 237.587 633.872 238.218C634.637 239.613 635.736 240.072 637.054 239.905C638.731 239.624 639.736 238.754 639.82 237.035C639.82 235.249 639.585 233.348 639.283 231.525C638.783 228.686 638.07 225.952 637.497 223.124C636.919 220.296 636.283 217.546 635.778 214.712C634.658 209.275 633.601 203.754 632.476 198.316C632.049 196.066 631.476 193.832 630.971 191.593C630.351 188.994 626.721 188.478 625.017 190.327C624.366 191.077 623.882 191.952 623.403 192.905C620.471 199.218 617.309 205.483 614.7 211.978C611.528 219.957 608.82 228.098 605.887 236.197C605.559 237.129 605.392 238.191 605.288 239.171C605.226 240.441 606.174 241.514 607.491 241.947C608.58 242.332 609.58 241.983 610.137 241.098C611.08 239.712 612.09 238.249 612.715 236.686C615.554 229.046 614.33 230.535 622.215 228.811C624.965 228.176 627.799 227.671 630.965 228.025ZM618.288 222.91C620.169 215.91 622.736 209.639 625.528 203.421C625.924 203.593 626.309 203.697 626.325 203.843C628.215 211.264 629.236 217.681 629.096 220.749C625.689 221.468 622.205 222.124 618.288 222.91Z" fill="#E42C24"/>
<path d="M672.096 213.245C671.757 212.318 671.346 211.407 671.007 210.48C668.679 203.709 665.71 197.162 662.117 190.99C661.257 189.464 660.132 188.188 658.997 186.844C656.914 184.428 652.466 185.725 651.815 188.85C651.585 189.995 651.356 191.141 651.2 192.277C650.914 194.761 650.721 197.391 650.216 199.907C648.867 206.391 648.419 212.99 647.82 219.532C647.617 221.49 647.195 223.48 646.992 225.438C646.627 228.454 646.33 231.464 646.112 234.469C645.992 235.297 646.174 236.167 646.492 236.948C646.976 238.448 648.679 238.98 649.987 238.146C650.674 237.693 651.252 236.948 651.606 236.235C652.023 235.37 652.112 234.313 652.216 233.334L655.783 208.209C656.315 204.725 656.846 201.235 657.346 197.459C657.856 197.99 658.257 198.235 658.45 198.584C660.674 203.287 662.882 207.922 664.252 212.954C665.648 218.209 666.898 223.48 668.294 228.735C668.617 230.11 669.018 231.547 669.695 232.797C671.377 235.563 675.221 235.381 676.632 232.381C677.044 231.511 677.289 230.516 677.393 229.537C679.028 217.589 680.601 205.719 682.164 193.777C682.513 191.204 682.789 188.641 682.992 186.089C683.013 185.047 682.742 184.042 681.841 183.407C681.112 182.907 679.054 183.084 678.184 183.865C677.658 184.448 677.174 185.329 677.044 186.089C676.367 189.589 675.768 193.162 675.237 196.646C674.362 202.183 673.565 207.709 672.69 213.245C672.533 213.188 672.315 213.219 672.096 213.245Z" fill="#E42C24"/>
</svg>
